<svg width="336" height="49" viewBox="0 0 336 49" fill="none" xmlns="http://www.w3.org/2000/svg">
<path d="M25.68 5.8464C25.552 7.2544 25.456 8.6144 25.392 9.9264C25.36 11.2384 25.344 12.2464 25.344 12.9504C25.344 13.5904 25.36 14.1984 25.392 14.7744C25.424 15.3504 25.456 15.8304 25.488 16.2144H24.384C24.064 13.8784 23.568 12.0384 22.896 10.6944C22.224 9.3184 21.344 8.3584 20.256 7.8144C19.2 7.2384 17.952 6.9504 16.512 6.9504H14.544C13.616 6.9504 12.912 7.0304 12.432 7.1904C11.952 7.3504 11.632 7.6704 11.472 8.1504C11.312 8.6304 11.232 9.3664 11.232 10.3584V35.3184C11.232 36.3104 11.312 37.0464 11.472 37.5264C11.632 38.0064 11.952 38.3264 12.432 38.4864C12.912 38.6464 13.616 38.7264 14.544 38.7264H16.896C18.336 38.7264 19.6 38.4224 20.688 37.8144C21.808 37.1744 22.752 36.1024 23.52 34.5984C24.32 33.0944 24.928 31.0624 25.344 28.5024H26.448C26.352 29.5264 26.304 30.8704 26.304 32.5344C26.304 33.2704 26.32 34.3104 26.352 35.6544C26.384 36.9984 26.48 38.3904 26.64 39.8304C25.008 39.7664 23.168 39.7344 21.12 39.7344C19.072 39.7024 17.248 39.6864 15.648 39.6864C14.848 39.6864 13.824 39.6864 12.576 39.6864C11.328 39.6864 9.984 39.7024 8.544 39.7344C7.104 39.7344 5.648 39.7504 4.176 39.7824C2.704 39.7824 1.312 39.7984 0 39.8304V38.8704C1.024 38.8064 1.792 38.6784 2.304 38.4864C2.816 38.2944 3.152 37.9104 3.312 37.3344C3.504 36.7584 3.6 35.8944 3.6 34.7424V10.9344C3.6 9.7504 3.504 8.8864 3.312 8.3424C3.152 7.7664 2.8 7.3824 2.256 7.1904C1.744 6.9664 0.992 6.8384 0 6.8064V5.8464C1.312 5.8784 2.704 5.9104 4.176 5.9424C5.648 5.9424 7.104 5.9584 8.544 5.9904C9.984 5.9904 11.328 5.9904 12.576 5.9904C13.824 5.9904 14.848 5.9904 15.648 5.9904C17.12 5.9904 18.784 5.9904 20.64 5.9904C22.528 5.9584 24.208 5.9104 25.68 5.8464ZM18.192 22.2624C18.192 22.2624 18.192 22.4224 18.192 22.7424C18.192 23.0624 18.192 23.2224 18.192 23.2224H9.792C9.792 23.2224 9.792 23.0624 9.792 22.7424C9.792 22.4224 9.792 22.2624 9.792 22.2624H18.192ZM19.584 15.9264C19.456 17.7504 19.392 19.1424 19.392 20.1024C19.424 21.0624 19.44 21.9424 19.44 22.7424C19.44 23.5424 19.456 24.4224 19.488 25.3824C19.52 26.3424 19.6 27.7344 19.728 29.5584H18.624C18.464 28.4384 18.16 27.3984 17.712 26.4384C17.296 25.4784 16.688 24.7104 15.888 24.1344C15.088 23.5264 14.048 23.2224 12.768 23.2224V22.2624C13.728 22.2624 14.544 22.0704 15.216 21.6864C15.888 21.2704 16.432 20.7424 16.848 20.1024C17.296 19.4304 17.648 18.7264 17.904 17.9904C18.16 17.2544 18.352 16.5664 18.48 15.9264H19.584Z" fill="#141414"/>
<path d="M39.4459 14.3424C40.7899 14.3424 41.9579 14.5184 42.9499 14.8704C43.9739 15.1904 44.7099 15.5104 45.1579 15.8304C46.2459 16.5664 46.9179 16.0864 47.1739 14.3904H48.1819C48.1179 15.2864 48.0699 16.3904 48.0379 17.7024C48.0059 18.9824 47.9899 20.6944 47.9899 22.8384H46.9819C46.8219 21.6544 46.5179 20.4864 46.0699 19.3344C45.6219 18.1824 44.9659 17.2384 44.1019 16.5024C43.2699 15.7664 42.1819 15.3984 40.8379 15.3984C39.9099 15.3984 39.1259 15.6704 38.4859 16.2144C37.8459 16.7264 37.5259 17.4784 37.5259 18.4704C37.5259 19.4304 37.8139 20.2784 38.3899 21.0144C38.9659 21.7184 39.7019 22.4064 40.5979 23.0784C41.5259 23.7184 42.4859 24.4064 43.4779 25.1424C44.5339 25.9424 45.4939 26.7424 46.3579 27.5424C47.2219 28.3104 47.9099 29.1584 48.4219 30.0864C48.9339 31.0144 49.1899 32.1184 49.1899 33.3984C49.1899 34.8384 48.7739 36.1024 47.9419 37.1904C47.1099 38.2464 46.0059 39.0624 44.6299 39.6384C43.2859 40.2144 41.7819 40.5024 40.1179 40.5024C39.1579 40.5024 38.2939 40.4064 37.5259 40.2144C36.7899 40.0224 36.1499 39.7824 35.6059 39.4944C35.1899 39.3024 34.7899 39.1264 34.4059 38.9664C34.0539 38.7744 33.7179 38.6144 33.3979 38.4864C33.0779 38.3904 32.7899 38.5024 32.5339 38.8224C32.3099 39.1424 32.1339 39.5904 32.0059 40.1664H30.9979C31.0619 39.1424 31.1099 37.8944 31.1419 36.4224C31.1739 34.9504 31.1899 32.9984 31.1899 30.5664H32.1979C32.3899 32.2944 32.7419 33.8304 33.2539 35.1744C33.7659 36.4864 34.4539 37.5264 35.3179 38.2944C36.2139 39.0304 37.3339 39.3984 38.6779 39.3984C39.2219 39.3984 39.7499 39.2864 40.2619 39.0624C40.7739 38.8384 41.1899 38.4704 41.5099 37.9584C41.8619 37.4464 42.0379 36.7904 42.0379 35.9904C42.0379 34.5824 41.5739 33.4144 40.6459 32.4864C39.7499 31.5584 38.5979 30.5504 37.1899 29.4624C36.1659 28.6304 35.1899 27.8144 34.2619 27.0144C33.3659 26.1824 32.6299 25.2864 32.0539 24.3264C31.4779 23.3344 31.1899 22.2144 31.1899 20.9664C31.1899 19.5264 31.5739 18.3104 32.3419 17.3184C33.1099 16.3264 34.1179 15.5904 35.3659 15.1104C36.6459 14.5984 38.0059 14.3424 39.4459 14.3424Z" fill="#141414"/>
<path d="M61.8577 7.1424V15.0144H67.5218V15.9744H61.8577V35.3664C61.8577 36.3264 62.0338 37.0144 62.3857 37.4304C62.7378 37.8144 63.2657 38.0064 63.9697 38.0064C64.5457 38.0064 65.1218 37.7984 65.6978 37.3824C66.2738 36.9344 66.7857 36.1824 67.2337 35.1264L68.0498 35.5584C67.5378 36.9984 66.7538 38.1824 65.6978 39.1104C64.6738 40.0384 63.2658 40.5024 61.4738 40.5024C60.4178 40.5024 59.4898 40.3584 58.6898 40.0704C57.8898 39.8144 57.2178 39.4144 56.6738 38.8704C55.9698 38.1664 55.5057 37.3024 55.2817 36.2784C55.0577 35.2224 54.9458 33.8624 54.9458 32.1984V15.9744H50.9137V15.0144H54.9458V8.6784C56.2898 8.6784 57.5217 8.5664 58.6418 8.3424C59.7938 8.0864 60.8657 7.6864 61.8577 7.1424Z" fill="#141414"/>
<path d="M81.1852 14.3424C84.0012 14.3424 86.2092 15.1744 87.8092 16.8384C89.4093 18.5024 90.2093 21.2224 90.2093 24.9984H74.4173L74.3213 24.0864H84.1612C84.1932 22.5184 84.0973 21.0784 83.8733 19.7664C83.6493 18.4224 83.2973 17.3504 82.8173 16.5504C82.3373 15.7504 81.6972 15.3504 80.8972 15.3504C79.7772 15.3504 78.8173 16.0544 78.0173 17.4624C77.2492 18.8704 76.7853 21.2064 76.6253 24.4704L76.7692 24.7584C76.7372 25.1424 76.7052 25.5424 76.6732 25.9584C76.6732 26.3744 76.6732 26.8064 76.6732 27.2544C76.6732 29.4624 76.9773 31.2544 77.5853 32.6304C78.2253 34.0064 79.0253 35.0144 79.9853 35.6544C80.9453 36.2624 81.9213 36.5664 82.9133 36.5664C83.5853 36.5664 84.2732 36.4704 84.9772 36.2784C85.7132 36.0544 86.4492 35.6704 87.1852 35.1264C87.9212 34.5504 88.6093 33.7504 89.2493 32.7264L90.1133 33.0144C89.7293 34.2304 89.1213 35.4144 88.2893 36.5664C87.4573 37.7184 86.4013 38.6624 85.1213 39.3984C83.8413 40.1344 82.3053 40.5024 80.5133 40.5024C78.3373 40.5024 76.4173 40.0384 74.7533 39.1104C73.0893 38.1824 71.7773 36.7744 70.8173 34.8864C69.8893 32.9984 69.4252 30.5984 69.4252 27.6864C69.4252 24.7104 69.9213 22.2304 70.9133 20.2464C71.9373 18.2624 73.3292 16.7904 75.0892 15.8304C76.8812 14.8384 78.9132 14.3424 81.1852 14.3424ZM86.1292 0.614401C86.6732 1.0304 86.9612 1.6064 86.9932 2.3424C87.0252 3.0784 86.7852 3.7664 86.2732 4.4064C85.7612 5.0464 85.1373 5.6224 84.4013 6.1344C83.6653 6.6464 82.7853 7.2704 81.7613 8.0064C80.7693 8.7424 79.5692 9.7664 78.1612 11.0784L77.6332 10.6464C78.5932 8.9184 79.2972 7.4784 79.7452 6.3264C80.1932 5.1424 80.5772 4.1344 80.8972 3.3024C81.2172 2.4704 81.6493 1.7504 82.1933 1.1424C82.6733 0.502401 83.2972 0.134401 84.0652 0.0384001C84.8652 -0.0896002 85.5532 0.1024 86.1292 0.614401Z" fill="#141414"/>
<path d="M102.733 7.1424V15.0144H108.397V15.9744H102.733V35.3664C102.733 36.3264 102.909 37.0144 103.261 37.4304C103.613 37.8144 104.141 38.0064 104.845 38.0064C105.421 38.0064 105.997 37.7984 106.573 37.3824C107.149 36.9344 107.661 36.1824 108.109 35.1264L108.925 35.5584C108.413 36.9984 107.629 38.1824 106.573 39.1104C105.549 40.0384 104.141 40.5024 102.349 40.5024C101.293 40.5024 100.365 40.3584 99.5648 40.0704C98.7648 39.8144 98.0928 39.4144 97.5488 38.8704C96.8448 38.1664 96.3808 37.3024 96.1568 36.2784C95.9328 35.2224 95.8207 33.8624 95.8207 32.1984V15.9744H91.7887V15.0144H95.8207V8.6784C97.1647 8.6784 98.3968 8.5664 99.5168 8.3424C100.669 8.0864 101.741 7.6864 102.733 7.1424Z" fill="#141414"/>
<path d="M116.104 2.6304C117.448 2.6304 118.504 2.9664 119.272 3.6384C120.072 4.2784 120.472 5.1744 120.472 6.3264C120.472 7.4784 120.072 8.3904 119.272 9.0624C118.504 9.7024 117.448 10.0224 116.104 10.0224C114.76 10.0224 113.688 9.7024 112.888 9.0624C112.12 8.3904 111.736 7.4784 111.736 6.3264C111.736 5.1744 112.12 4.2784 112.888 3.6384C113.688 2.9664 114.76 2.6304 116.104 2.6304ZM119.848 14.4864V35.3664C119.848 36.7104 120.072 37.6224 120.52 38.1024C121 38.5824 121.8 38.8224 122.92 38.8224V39.8304C122.344 39.7984 121.448 39.7664 120.232 39.7344C119.016 39.6704 117.784 39.6384 116.536 39.6384C115.288 39.6384 114.024 39.6704 112.744 39.7344C111.464 39.7664 110.504 39.7984 109.864 39.8304V38.8224C110.984 38.8224 111.768 38.5824 112.216 38.1024C112.696 37.6224 112.936 36.7104 112.936 35.3664V20.2464C112.936 18.8064 112.712 17.7504 112.264 17.0784C111.848 16.3744 111.048 16.0224 109.864 16.0224V15.0144C110.888 15.1104 111.88 15.1584 112.84 15.1584C114.184 15.1584 115.432 15.1104 116.584 15.0144C117.768 14.8864 118.856 14.7104 119.848 14.4864Z" fill="#141414"/>
<path d="M137.484 14.3424C138.732 14.3424 139.868 14.4864 140.892 14.7744C141.948 15.0304 142.812 15.3664 143.484 15.7824C144.316 16.2944 144.956 16.9344 145.404 17.7024C145.884 18.4384 146.124 19.3024 146.124 20.2944C146.124 21.4144 145.772 22.3424 145.068 23.0784C144.364 23.7824 143.452 24.1344 142.332 24.1344C141.212 24.1344 140.316 23.8144 139.644 23.1744C138.972 22.5344 138.636 21.6704 138.636 20.5824C138.636 19.5584 138.956 18.7104 139.596 18.0384C140.236 17.3344 140.972 16.8704 141.804 16.6464C141.548 16.3264 141.164 16.0544 140.652 15.8304C140.14 15.6064 139.564 15.4944 138.924 15.4944C137.932 15.4944 137.052 15.7824 136.284 16.3584C135.548 16.9344 134.924 17.7344 134.412 18.7584C133.9 19.7824 133.5 20.9824 133.212 22.3584C132.956 23.7344 132.828 25.2384 132.828 26.8704C132.828 29.3344 133.132 31.2704 133.74 32.6784C134.38 34.0864 135.18 35.0784 136.14 35.6544C137.132 36.2304 138.156 36.5184 139.212 36.5184C139.82 36.5184 140.476 36.4224 141.18 36.2304C141.916 36.0384 142.652 35.6544 143.388 35.0784C144.156 34.5024 144.86 33.6864 145.5 32.6304L146.316 32.9184C145.964 34.1024 145.388 35.2864 144.588 36.4704C143.788 37.6544 142.748 38.6304 141.468 39.3984C140.188 40.1344 138.62 40.5024 136.764 40.5024C134.684 40.5024 132.796 40.0544 131.1 39.1584C129.436 38.2304 128.092 36.8224 127.068 34.9344C126.076 33.0144 125.58 30.5504 125.58 27.5424C125.58 24.6624 126.092 22.2464 127.116 20.2944C128.172 18.3104 129.596 16.8224 131.388 15.8304C133.18 14.8384 135.212 14.3424 137.484 14.3424Z" fill="#141414"/>
<path d="M155.441 40.1664C154.001 40.1664 152.801 39.8944 151.841 39.3504C150.881 38.8064 150.177 38.0864 149.729 37.1904C149.281 36.2624 149.057 35.2544 149.057 34.1664C149.057 32.7904 149.361 31.6704 149.969 30.8064C150.609 29.9424 151.425 29.2384 152.417 28.6944C153.409 28.1504 154.449 27.7024 155.537 27.3504C156.657 26.9984 157.713 26.6624 158.705 26.3424C159.729 25.9904 160.545 25.5904 161.153 25.1424C161.793 24.6624 162.113 24.0544 162.113 23.3184V19.5744C162.113 18.7424 161.969 18.0064 161.681 17.3664C161.425 16.6944 161.009 16.1824 160.433 15.8304C159.889 15.4784 159.169 15.3024 158.273 15.3024C157.633 15.3024 156.993 15.3984 156.353 15.5904C155.713 15.7504 155.185 16.0384 154.769 16.4544C155.665 16.7744 156.353 17.2704 156.833 17.9424C157.345 18.5824 157.601 19.3184 157.601 20.1504C157.601 21.2384 157.217 22.1024 156.449 22.7424C155.713 23.3824 154.833 23.7024 153.809 23.7024C152.657 23.7024 151.777 23.3504 151.169 22.6464C150.593 21.9104 150.305 21.0304 150.305 20.0064C150.305 19.0784 150.529 18.3104 150.977 17.7024C151.457 17.0944 152.113 16.5184 152.945 15.9744C153.841 15.4624 154.913 15.0624 156.161 14.7744C157.441 14.4864 158.817 14.3424 160.289 14.3424C161.761 14.3424 163.089 14.5024 164.273 14.8224C165.457 15.1104 166.449 15.6544 167.249 16.4544C167.985 17.1904 168.465 18.1024 168.689 19.1904C168.913 20.2464 169.025 21.5904 169.025 23.2224V36.2784C169.025 37.0784 169.105 37.6384 169.265 37.9584C169.425 38.2464 169.697 38.3904 170.081 38.3904C170.369 38.3904 170.641 38.3104 170.897 38.1504C171.185 37.9904 171.489 37.7984 171.809 37.5744L172.289 38.3904C171.617 38.9664 170.833 39.4144 169.937 39.7344C169.073 40.0224 168.097 40.1664 167.009 40.1664C165.825 40.1664 164.881 40.0064 164.177 39.6864C163.473 39.3344 162.961 38.8704 162.641 38.2944C162.353 37.7184 162.209 37.0464 162.209 36.2784C161.441 37.4944 160.513 38.4544 159.425 39.1584C158.337 39.8304 157.009 40.1664 155.441 40.1664ZM158.849 37.0944C159.489 37.0944 160.065 36.9504 160.577 36.6624C161.121 36.3424 161.633 35.8304 162.113 35.1264V25.2864C161.825 25.7664 161.425 26.1984 160.913 26.5824C160.401 26.9664 159.857 27.3664 159.281 27.7824C158.705 28.1664 158.145 28.5984 157.601 29.0784C157.089 29.5584 156.673 30.1504 156.353 30.8544C156.033 31.5584 155.873 32.4064 155.873 33.3984C155.873 34.6464 156.145 35.5744 156.689 36.1824C157.233 36.7904 157.953 37.0944 158.849 37.0944Z" fill="#141414"/>
<path d="M185.109 5.8464C185.941 5.8784 187.029 5.9104 188.373 5.9424C189.717 5.9744 191.061 5.9904 192.405 5.9904C193.941 5.9904 195.429 5.9744 196.869 5.9424C198.309 5.9104 199.333 5.8944 199.941 5.8944C203.909 5.8944 206.869 6.5984 208.821 8.0064C210.805 9.4144 211.797 11.2224 211.797 13.4304C211.797 14.5504 211.461 15.6864 210.789 16.8384C210.117 17.9904 209.077 19.0144 207.669 19.9104C206.261 20.8064 204.437 21.4624 202.197 21.8784V21.9744C205.205 22.1984 207.589 22.7424 209.349 23.6064C211.109 24.4704 212.373 25.5104 213.141 26.7264C213.909 27.9424 214.293 29.2064 214.293 30.5184C214.293 32.5344 213.765 34.2304 212.709 35.6064C211.653 36.9824 210.133 38.0384 208.149 38.7744C206.165 39.4784 203.797 39.8304 201.045 39.8304C200.277 39.8304 199.173 39.8144 197.733 39.7824C196.293 39.7184 194.549 39.6864 192.501 39.6864C191.093 39.6864 189.717 39.7024 188.373 39.7344C187.029 39.7344 185.941 39.7664 185.109 39.8304V38.8704C186.133 38.8064 186.901 38.6784 187.413 38.4864C187.925 38.2944 188.261 37.9104 188.421 37.3344C188.613 36.7584 188.709 35.8944 188.709 34.7424V10.9344C188.709 9.7504 188.613 8.8864 188.421 8.3424C188.261 7.7664 187.909 7.3824 187.365 7.1904C186.853 6.9664 186.101 6.8384 185.109 6.8064V5.8464ZM199.317 6.8064C198.069 6.8064 197.253 7.0784 196.869 7.6224C196.517 8.1664 196.341 9.2704 196.341 10.9344V34.7424C196.341 35.8624 196.421 36.7104 196.581 37.2864C196.773 37.8624 197.093 38.2464 197.541 38.4384C198.021 38.6304 198.725 38.7264 199.653 38.7264C201.957 38.7264 203.637 38.0064 204.693 36.5664C205.781 35.0944 206.325 33.0144 206.325 30.3264C206.325 27.8624 205.701 25.9584 204.453 24.6144C203.237 23.2704 201.205 22.5984 198.357 22.5984H194.277C194.277 22.5984 194.277 22.4704 194.277 22.2144C194.277 21.9264 194.277 21.7824 194.277 21.7824H198.405C199.909 21.7824 201.061 21.4304 201.861 20.7264C202.661 19.9904 203.221 19.0304 203.541 17.8464C203.861 16.6304 204.021 15.3344 204.021 13.9584C204.021 11.5904 203.653 9.8144 202.917 8.6304C202.181 7.4144 200.981 6.8064 199.317 6.8064Z" fill="#141414"/>
<path d="M229.263 14.3424C232.079 14.3424 234.287 15.1744 235.887 16.8384C237.487 18.5024 238.287 21.2224 238.287 24.9984H222.495L222.399 24.0864H232.239C232.271 22.5184 232.175 21.0784 231.951 19.7664C231.727 18.4224 231.375 17.3504 230.895 16.5504C230.415 15.7504 229.775 15.3504 228.975 15.3504C227.855 15.3504 226.895 16.0544 226.095 17.4624C225.327 18.8704 224.863 21.2064 224.703 24.4704L224.847 24.7584C224.815 25.1424 224.783 25.5424 224.751 25.9584C224.751 26.3744 224.751 26.8064 224.751 27.2544C224.751 29.4624 225.055 31.2544 225.663 32.6304C226.303 34.0064 227.103 35.0144 228.063 35.6544C229.023 36.2624 229.999 36.5664 230.991 36.5664C231.663 36.5664 232.351 36.4704 233.055 36.2784C233.791 36.0544 234.527 35.6704 235.263 35.1264C235.999 34.5504 236.687 33.7504 237.327 32.7264L238.191 33.0144C237.807 34.2304 237.199 35.4144 236.367 36.5664C235.535 37.7184 234.479 38.6624 233.199 39.3984C231.919 40.1344 230.383 40.5024 228.591 40.5024C226.415 40.5024 224.495 40.0384 222.831 39.1104C221.167 38.1824 219.855 36.7744 218.895 34.8864C217.967 32.9984 217.503 30.5984 217.503 27.6864C217.503 24.7104 217.999 22.2304 218.991 20.2464C220.015 18.2624 221.407 16.7904 223.167 15.8304C224.959 14.8384 226.991 14.3424 229.263 14.3424Z" fill="#141414"/>
<path d="M247.691 40.1664C246.251 40.1664 245.051 39.8944 244.091 39.3504C243.131 38.8064 242.427 38.0864 241.979 37.1904C241.531 36.2624 241.307 35.2544 241.307 34.1664C241.307 32.7904 241.611 31.6704 242.219 30.8064C242.859 29.9424 243.675 29.2384 244.667 28.6944C245.659 28.1504 246.699 27.7024 247.787 27.3504C248.907 26.9984 249.963 26.6624 250.955 26.3424C251.979 25.9904 252.795 25.5904 253.403 25.1424C254.043 24.6624 254.363 24.0544 254.363 23.3184V19.5744C254.363 18.7424 254.219 18.0064 253.931 17.3664C253.675 16.6944 253.259 16.1824 252.683 15.8304C252.139 15.4784 251.419 15.3024 250.523 15.3024C249.883 15.3024 249.243 15.3984 248.603 15.5904C247.963 15.7504 247.435 16.0384 247.019 16.4544C247.915 16.7744 248.603 17.2704 249.083 17.9424C249.595 18.5824 249.851 19.3184 249.851 20.1504C249.851 21.2384 249.467 22.1024 248.699 22.7424C247.963 23.3824 247.083 23.7024 246.059 23.7024C244.907 23.7024 244.027 23.3504 243.419 22.6464C242.843 21.9104 242.555 21.0304 242.555 20.0064C242.555 19.0784 242.779 18.3104 243.227 17.7024C243.707 17.0944 244.363 16.5184 245.195 15.9744C246.091 15.4624 247.163 15.0624 248.411 14.7744C249.691 14.4864 251.067 14.3424 252.539 14.3424C254.011 14.3424 255.339 14.5024 256.523 14.8224C257.707 15.1104 258.699 15.6544 259.499 16.4544C260.235 17.1904 260.715 18.1024 260.939 19.1904C261.163 20.2464 261.275 21.5904 261.275 23.2224V36.2784C261.275 37.0784 261.355 37.6384 261.515 37.9584C261.675 38.2464 261.947 38.3904 262.331 38.3904C262.619 38.3904 262.891 38.3104 263.147 38.1504C263.435 37.9904 263.739 37.7984 264.059 37.5744L264.539 38.3904C263.867 38.9664 263.083 39.4144 262.187 39.7344C261.323 40.0224 260.347 40.1664 259.259 40.1664C258.075 40.1664 257.131 40.0064 256.427 39.6864C255.723 39.3344 255.211 38.8704 254.891 38.2944C254.603 37.7184 254.459 37.0464 254.459 36.2784C253.691 37.4944 252.763 38.4544 251.675 39.1584C250.587 39.8304 249.259 40.1664 247.691 40.1664ZM251.099 37.0944C251.739 37.0944 252.315 36.9504 252.827 36.6624C253.371 36.3424 253.883 35.8304 254.363 35.1264V25.2864C254.075 25.7664 253.675 26.1984 253.163 26.5824C252.651 26.9664 252.107 27.3664 251.531 27.7824C250.955 28.1664 250.395 28.5984 249.851 29.0784C249.339 29.5584 248.923 30.1504 248.603 30.8544C248.283 31.5584 248.123 32.4064 248.123 33.3984C248.123 34.6464 248.395 35.5744 248.939 36.1824C249.483 36.7904 250.203 37.0944 251.099 37.0944Z" fill="#141414"/>
<path d="M289.815 14.4864V34.5984C289.815 36.0384 290.039 37.1104 290.487 37.8144C290.935 38.4864 291.735 38.8224 292.887 38.8224V39.8304C291.895 39.7344 290.903 39.6864 289.911 39.6864C288.567 39.6864 287.319 39.7344 286.167 39.8304C285.015 39.9264 283.927 40.1024 282.903 40.3584V36.0384C282.135 37.6384 281.063 38.7904 279.687 39.4944C278.343 40.1664 276.839 40.5024 275.175 40.5024C273.831 40.5024 272.743 40.3264 271.911 39.9744C271.079 39.6224 270.423 39.1744 269.943 38.6304C269.399 38.0224 269.015 37.2224 268.791 36.2304C268.567 35.2384 268.455 33.9584 268.455 32.3904V20.2464C268.455 18.8064 268.231 17.7504 267.783 17.0784C267.367 16.3744 266.567 16.0224 265.383 16.0224V15.0144C266.407 15.1104 267.399 15.1584 268.359 15.1584C269.703 15.1584 270.951 15.1104 272.103 15.0144C273.287 14.8864 274.375 14.7104 275.367 14.4864V34.3584C275.367 35.1584 275.431 35.8624 275.559 36.4704C275.719 37.0784 276.007 37.5584 276.423 37.9104C276.839 38.2304 277.447 38.3904 278.247 38.3904C279.111 38.3904 279.879 38.1504 280.551 37.6704C281.255 37.1904 281.815 36.5344 282.231 35.7024C282.679 34.8384 282.903 33.8784 282.903 32.8224V20.2464C282.903 18.8064 282.679 17.7504 282.231 17.0784C281.815 16.3744 281.015 16.0224 279.831 16.0224V15.0144C280.855 15.1104 281.847 15.1584 282.807 15.1584C284.151 15.1584 285.399 15.1104 286.551 15.0144C287.735 14.8864 288.823 14.7104 289.815 14.4864Z" fill="#141414"/>
<path d="M304.764 7.1424V15.0144H310.428V15.9744H304.764V35.3664C304.764 36.3264 304.94 37.0144 305.292 37.4304C305.644 37.8144 306.172 38.0064 306.876 38.0064C307.452 38.0064 308.028 37.7984 308.604 37.3824C309.18 36.9344 309.692 36.1824 310.14 35.1264L310.956 35.5584C310.444 36.9984 309.66 38.1824 308.604 39.1104C307.58 40.0384 306.172 40.5024 304.38 40.5024C303.324 40.5024 302.396 40.3584 301.596 40.0704C300.796 39.8144 300.124 39.4144 299.58 38.8704C298.876 38.1664 298.412 37.3024 298.188 36.2784C297.964 35.2224 297.852 33.8624 297.852 32.1984V15.9744H293.82V15.0144H297.852V8.6784C299.196 8.6784 300.428 8.5664 301.548 8.3424C302.7 8.0864 303.772 7.6864 304.764 7.1424Z" fill="#141414"/>
<path d="M335.367 15.0144V15.9744C334.759 16.1344 334.183 16.5184 333.639 17.1264C333.095 17.7024 332.567 18.6944 332.055 20.1024L325.287 39.1104L323.511 42.4704L313.047 18.7104C312.503 17.4624 311.959 16.7104 311.415 16.4544C310.903 16.1664 310.455 16.0224 310.071 16.0224V15.0144C311.127 15.1104 312.215 15.1904 313.335 15.2544C314.487 15.2864 315.591 15.3024 316.647 15.3024C317.959 15.3024 319.159 15.2704 320.247 15.2064C321.335 15.1424 322.359 15.0784 323.319 15.0144V16.0224C322.679 16.0224 322.071 16.0704 321.495 16.1664C320.951 16.2304 320.567 16.4544 320.343 16.8384C320.151 17.1904 320.247 17.8144 320.631 18.7104L326.679 33.3024L326.247 33.5904L329.799 23.6544C330.407 21.9264 330.663 20.5184 330.567 19.4304C330.471 18.3104 330.119 17.4784 329.511 16.9344C328.903 16.3584 328.071 16.0384 327.015 15.9744V15.0144C327.527 15.0464 328.055 15.0784 328.599 15.1104C329.143 15.1104 329.687 15.1264 330.231 15.1584C330.775 15.1584 331.255 15.1584 331.671 15.1584C332.311 15.1584 332.983 15.1424 333.687 15.1104C334.391 15.0784 334.951 15.0464 335.367 15.0144ZM325.287 39.1104L323.463 44.2464C323.143 45.0464 322.807 45.7184 322.455 46.2624C322.135 46.8384 321.767 47.3024 321.351 47.6544C320.903 48.0384 320.327 48.3264 319.623 48.5184C318.919 48.7424 318.103 48.8544 317.175 48.8544C316.407 48.8544 315.607 48.7264 314.775 48.4704C313.975 48.2144 313.303 47.7984 312.759 47.2224C312.215 46.6464 311.943 45.9104 311.943 45.0144C311.943 44.0224 312.295 43.2224 312.999 42.6144C313.703 42.0384 314.631 41.7504 315.783 41.7504C316.839 41.7504 317.703 42.0064 318.375 42.5184C319.047 43.0304 319.383 43.7824 319.383 44.7744C319.383 45.4144 319.175 46.0224 318.759 46.5984C318.375 47.1744 317.783 47.6064 316.983 47.8944C317.143 47.9264 317.335 47.9424 317.559 47.9424C317.783 47.9424 317.959 47.9424 318.087 47.9424C319.047 47.9424 319.895 47.6384 320.631 47.0304C321.367 46.4224 321.975 45.4624 322.455 44.1504L324.135 39.2064L325.287 39.1104Z" fill="#141414"/>
</svg>
