<svg width="440" height="384" viewBox="0 0 440 384" fill="none" xmlns="http://www.w3.org/2000/svg">
<g clip-path="url(#clip0_83_49)">
<path d="M141.932 367.473C141.514 367.493 141.1 367.383 140.746 367.159C140.392 366.935 140.116 366.608 139.954 366.221C139.793 365.835 139.754 365.409 139.843 364.999C139.932 364.59 140.145 364.218 140.452 363.934C140.504 363.73 140.541 363.583 140.592 363.378C140.574 363.334 140.555 363.289 140.536 363.245C140.115 362.249 139.409 361.401 138.507 360.806C137.605 360.21 136.547 359.895 135.467 359.899C134.386 359.903 133.33 360.226 132.433 360.828C131.535 361.43 130.836 362.284 130.422 363.282C128.767 367.266 126.661 371.258 126.143 375.47C125.914 377.333 126.011 379.22 126.427 381.049C122.542 372.574 120.524 363.361 120.511 354.037C120.51 351.698 120.64 349.36 120.901 347.035C121.116 345.128 121.414 343.236 121.796 341.357C123.878 331.161 128.349 321.605 134.842 313.473C137.985 311.758 140.526 309.122 142.124 305.918C142.703 304.766 143.112 303.537 143.339 302.268C142.984 302.315 142.624 302.344 142.27 302.367C142.159 302.373 142.043 302.379 141.932 302.385L141.891 302.386C141.501 302.404 141.115 302.308 140.778 302.111C140.442 301.914 140.169 301.624 139.994 301.276C139.818 300.928 139.747 300.536 139.789 300.148C139.831 299.761 139.984 299.393 140.229 299.09C140.382 298.902 140.536 298.714 140.689 298.526C140.921 298.235 141.16 297.95 141.392 297.66C141.419 297.632 141.444 297.603 141.468 297.573C141.735 297.241 142.002 296.916 142.27 296.585C141.782 295.827 141.125 295.193 140.352 294.731C137.673 293.162 133.976 294.248 132.041 296.672C130.1 299.095 129.734 302.495 130.408 305.523C131.071 308.099 132.168 310.544 133.651 312.752C133.506 312.938 133.355 313.118 133.209 313.304C130.553 316.72 128.239 320.387 126.298 324.253C126.77 319.922 126.207 315.54 124.655 311.468C123.082 307.673 120.133 304.477 117.537 301.197C114.418 297.257 108.023 298.976 107.474 303.971C107.469 304.02 107.464 304.068 107.458 304.116C107.844 304.334 108.222 304.565 108.591 304.809C109.055 305.119 109.414 305.562 109.622 306.08C109.83 306.598 109.877 307.166 109.756 307.711C109.636 308.256 109.353 308.752 108.946 309.133C108.539 309.515 108.026 309.764 107.474 309.849L107.418 309.858C107.555 311.248 107.798 312.625 108.144 313.979C109.147 317.756 110.92 321.285 113.351 324.345C115.782 327.406 118.819 329.93 122.272 331.762C122.499 331.878 122.72 331.994 122.946 332.105C120.997 337.63 119.774 343.385 119.308 349.226C119.045 352.671 119.06 356.133 119.355 359.576L119.337 359.454C118.593 355.625 116.551 352.17 113.555 349.673C109.105 346.018 102.818 344.671 98.0172 341.733C97.507 341.406 96.9137 341.231 96.3074 341.229C95.7011 341.228 95.107 341.4 94.5952 341.725C94.0835 342.05 93.6753 342.515 93.4189 343.064C93.1626 343.613 93.0686 344.225 93.1483 344.826C93.1547 344.868 93.1613 344.911 93.1679 344.954C93.8836 345.245 94.5803 345.581 95.2542 345.959C95.6399 346.177 96.0174 346.408 96.3867 346.652C96.8507 346.962 97.2103 347.405 97.4182 347.923C97.6262 348.441 97.6729 349.009 97.5522 349.554C97.4315 350.099 97.149 350.595 96.7418 350.976C96.3346 351.358 95.8216 351.607 95.27 351.692L95.2135 351.701C95.1729 351.707 95.138 351.713 95.0974 351.719C96.3201 354.638 98.0363 357.326 100.171 359.663C102.808 362.492 105.994 364.753 109.536 366.307C113.078 367.861 116.899 368.675 120.767 368.7H120.773C121.823 373.262 123.344 377.703 125.312 381.95H141.526C141.584 381.77 141.636 381.584 141.688 381.404C140.188 381.498 138.681 381.409 137.202 381.137C138.405 379.66 139.608 378.173 140.811 376.697C140.838 376.669 140.863 376.64 140.886 376.609C141.497 375.854 142.113 375.104 142.723 374.349L142.723 374.348C142.756 372.032 142.489 369.721 141.932 367.473Z" fill="#F2F2F2"/>
<path d="M196.271 55.6873C196.271 66.611 190.806 77.7268 179.882 77.7268C168.959 77.7268 153.887 69.8152 157.278 52.8617C159.42 42.1501 165.568 35.9082 176.492 35.9082C181.737 35.9082 186.768 37.9921 190.477 41.7014C194.187 45.4107 196.271 50.4415 196.271 55.6873Z" fill="#141414"/>
<path d="M150.448 211.758C151.043 211.098 151.486 210.315 151.746 209.465C152.006 208.615 152.077 207.718 151.952 206.838C151.828 205.957 151.513 205.115 151.028 204.37C150.543 203.624 149.901 202.995 149.146 202.525L153.928 181.45L143.417 185.404L140.488 204.811C139.782 206.131 139.585 207.664 139.934 209.12C140.283 210.575 141.154 211.852 142.382 212.708C143.61 213.565 145.109 213.941 146.595 213.766C148.082 213.591 149.452 212.876 150.448 211.758Z" fill="#FFB8B8"/>
<path d="M172.757 137.059L165.421 137.806C165.421 137.806 167.34 148.673 164.34 151.121C161.339 153.569 162.549 153.557 162.566 155.371C162.583 157.186 161.403 160.221 159.002 162.058C156.6 163.896 151.606 196.618 151.606 196.618L140.721 196.723C141.045 193.908 141.018 191.064 140.639 188.257C139.994 184.029 136.732 173.381 137.924 171.555C139.116 169.73 138.488 166.372 138.454 162.744C138.419 159.116 143.609 163.125 143.551 157.077C143.493 151.03 150.151 113.085 149.494 107.648C148.837 102.211 155.442 97.3097 155.442 97.3097L161.49 97.2517L172.757 137.059Z" fill="#141414"/>
<path d="M250.637 86.0255C250.82 86.8477 250.821 87.7001 250.639 88.5225C250.457 89.3449 250.096 90.1175 249.584 90.7857C249.071 91.4538 248.417 92.0015 247.67 92.3899C246.923 92.7784 246.099 92.9982 245.257 93.034L239.372 112.646L232.548 104.482L239.183 87.11C239.217 85.6922 239.769 84.336 240.736 83.2984C241.703 82.2608 243.016 81.6138 244.428 81.4802C245.84 81.3465 247.252 81.7353 248.396 82.5731C249.541 83.4108 250.338 84.6392 250.637 86.0255Z" fill="#FFB8B8"/>
<path d="M188.505 92.4132C188.505 92.4132 202.732 87.0788 210.445 116.292L220.685 126.897L229.287 111.352L228.15 107.665L234.798 92.5927L246.197 99.1345L243.391 109.482L243.865 114.598L241.141 117.779L236.682 134.223L233.893 139.596C233.893 139.596 230.375 146.474 224.235 147.607C222.598 147.914 220.923 147.961 219.271 147.748C216.037 147.326 212.494 145.836 208.852 142.546C195.341 130.343 187.35 120.93 187.35 120.93L188.505 92.4132Z" fill="#141414"/>
<path d="M257.094 98.6267L231.768 74.184C231.63 74.0507 231.548 73.8696 231.539 73.6779C231.531 73.4862 231.596 73.2986 231.722 73.1537C231.848 73.0088 232.024 72.9177 232.215 72.899C232.406 72.8804 232.597 72.9358 232.749 73.0537L259.603 93.9752L257.094 98.6267Z" fill="#3F3D56"/>
<path d="M267.525 101.336C266.255 101.782 264.936 102.077 263.597 102.214C262.915 102.281 262.231 102.305 261.553 102.313C261.315 102.321 261.074 102.322 260.838 102.325C260.274 102.333 259.711 102.342 259.142 102.348C258.662 102.357 258.178 102.365 257.7 102.369C256.997 102.379 256.225 102.365 255.721 101.871C255.508 101.622 255.352 101.328 255.266 101.012C255.18 100.696 255.166 100.364 255.223 100.041C255.335 99.3665 255.54 98.7102 255.831 98.091C256.438 96.6287 257.051 95.1683 257.659 93.706L257.564 92.8876C258.68 92.7261 259.815 92.7609 260.919 92.9906C261.37 93.1057 261.793 93.3108 262.162 93.5937C262.532 93.8765 262.841 94.2312 263.069 94.6365C263.166 94.8187 263.242 95.0106 263.297 95.209C263.535 96.0804 263.364 97.0474 263.466 97.9591C263.49 98.1488 263.525 98.3368 263.571 98.5222C263.702 99.0704 263.952 99.5831 264.303 100.024C264.655 100.464 265.099 100.822 265.605 101.071C266.208 101.336 266.873 101.428 267.525 101.336Z" fill="#CCCCCC"/>
<path d="M269.306 100.627C268.777 101.002 268.167 101.245 267.525 101.336C268.13 101.13 268.725 100.893 269.306 100.627Z" fill="#E6E6E6"/>
<path d="M267.525 101.336C266.255 101.782 264.936 102.077 263.597 102.214C262.915 102.281 262.231 102.305 261.553 102.313C261.315 102.321 261.074 102.322 260.838 102.325C260.274 102.333 259.711 102.342 259.142 102.348C259.17 102.062 259.212 101.779 259.27 101.497C259.801 98.874 261.344 96.6432 263.069 94.6365C263.166 94.8187 263.242 95.0106 263.297 95.209C263.535 96.0804 263.364 97.0475 263.466 97.9591C263.49 98.1488 263.525 98.3368 263.571 98.5222C263.702 99.0705 263.952 99.5831 264.303 100.024C264.655 100.464 265.099 100.822 265.605 101.071C266.208 101.336 266.873 101.428 267.525 101.336Z" fill="#141414"/>
<path d="M169.422 141.329L168.416 146.126L167.56 163.816L201.94 159.161L204.579 138.677L200.93 132.681L169.422 141.329Z" fill="#FFB6B6"/>
<path d="M194.851 68.9744C199.161 61.0895 196.263 51.2032 188.378 46.8929C180.493 42.5825 170.607 45.4804 166.297 53.3653C161.986 61.2503 164.884 71.1366 172.769 75.4469C180.654 79.7572 190.54 76.8594 194.851 68.9744Z" fill="#FFB7B7"/>
<path d="M156.06 119.284L151.586 107.659C151.584 102.793 153.231 98.0693 156.258 94.259C159.286 90.4488 163.515 87.7768 168.256 86.6791L168.317 86.6647L171.535 82.3296L184.606 83.6372L187.002 88.5338L196.474 94.1738L207.247 106.788C210.639 109.224 212.655 112.347 213.238 116.073C214.476 123.981 208.938 131.895 208.28 132.802L206.583 142.36L167.343 147.983L167.043 148.021L156.06 119.284Z" fill="#141414"/>
<path d="M163.545 65.4353C163.693 65.412 163.84 65.3809 163.988 65.3576C166.526 64.9075 169.064 64.4651 171.594 64.0071L171.827 58.2714L174.893 63.4095C181.886 65.7302 188.429 64.4185 194.584 61.5235C196.614 60.5597 198.584 59.4737 200.482 58.2714C201.807 50.1921 198.466 43.825 189.888 43.0122C189.622 42.987 189.43 42.7639 189.197 42.6473L189.194 42.6468L189.192 42.6451L189.19 42.6426L189.189 42.6396C188.794 42.4533 188.39 42.2748 187.986 42.1118C184.827 40.877 181.381 40.5643 178.051 41.21C174.72 41.8558 171.642 43.4335 169.172 45.7597C164.205 50.5021 161.97 58.3335 163.545 65.4353Z" fill="#141414"/>
<path d="M193.388 341.641L202.723 345.93L223.709 311.965L209.932 305.635L193.388 341.641Z" fill="#FFB6B6"/>
<path d="M193.189 335.972L208.35 341.872L205.444 348.194L215.021 364.33C215.494 365.127 215.7 366.054 215.609 366.977C215.518 367.899 215.134 368.768 214.514 369.457C213.894 370.145 213.07 370.618 212.162 370.805C211.255 370.992 210.311 370.885 209.469 370.498L191.901 362.425L191.747 354.78L187.691 360.49L181.067 357.446L193.189 335.972Z" fill="#141414"/>
<path d="M152.582 362.714H162.855L167.743 323.089L152.58 323.09L152.582 362.714Z" fill="#FFB6B6"/>
<path d="M146.996 281.406L146.995 281.3L150.854 274.65L146.914 265.994L146.634 213.387C145.082 175.37 167.137 157.096 167.311 156.916L167.789 156.419L203.16 155.553C203.16 155.553 221.75 210.129 236.519 259.303C237.392 262.21 239.861 265.076 239.093 267.953C233.003 290.776 225.775 316.607 221.136 317.336L206.443 309.425L209.174 269.871L207.495 265.566C204.487 265.012 196.668 234.669 196.668 234.669C195.358 233.113 195.425 228.883 195.425 228.883L185.184 218.13L175.745 267.692L178.079 282.474L176.147 287.557L167.875 329.519L167.787 330.195L152.192 328.639L146.996 281.406Z" fill="#141414"/>
<path d="M149.103 357.647L165.343 356.677V363.635L180.782 374.298C181.545 374.825 182.119 375.581 182.422 376.457C182.724 377.333 182.738 378.283 182.462 379.168C182.187 380.053 181.635 380.826 180.889 381.375C180.142 381.924 179.24 382.221 178.313 382.221H158.979L155.647 375.338L154.345 382.221H147.056L149.103 357.647Z" fill="#141414"/>
<path d="M169.779 42.2356V42.2494C169.781 43.101 169.673 43.9493 169.456 44.773C169.422 44.9174 169.381 45.0686 169.332 45.213V45.2199C168.871 46.6908 168.075 48.0349 167.008 49.1468C165.94 50.2587 164.629 51.1081 163.178 51.6286C162.965 51.7111 162.745 51.7799 162.525 51.8418C162.061 51.9762 161.588 52.0728 161.108 52.1306C160.678 52.1916 160.244 52.2215 159.809 52.22C159.469 52.2214 159.129 52.2053 158.791 52.1718C158 52.0917 157.221 51.9139 156.474 51.6423C156.357 51.6083 156.242 51.567 156.13 51.5186C156.074 51.4986 156.019 51.4757 155.965 51.4498C154.717 50.9277 153.589 50.1574 152.648 49.1859C151.708 48.2144 150.974 47.0618 150.493 45.7981C150.011 44.5345 149.791 43.1862 149.846 41.835C149.902 40.4838 150.231 39.1579 150.815 37.9379L150.821 37.931C151.31 36.9075 151.973 35.9768 152.781 35.1805C154.583 33.3858 155.377 28.888 158.113 28.888C158.244 28.8857 158.375 28.8903 158.505 28.9017C160.341 28.9636 163.735 32.9251 165.179 33.8603C166.252 34.5378 167.181 35.4184 167.916 36.4526C168.683 37.5165 169.23 38.7228 169.525 40.0008C169.694 40.7338 169.779 41.4835 169.779 42.2356Z" fill="#141414"/>
<path d="M157.597 38.7636C156.049 40.5664 153.624 41.2671 151.437 42.2052C147.578 43.8985 144.189 46.5077 141.566 49.8067C138.942 53.1056 137.163 56.9946 136.383 61.1366C135.778 64.5104 135.857 68.0028 134.902 71.2918C133.953 74.5807 131.602 77.8076 128.228 78.3783C125.945 78.7683 123.656 77.8867 121.509 77.0164C120.328 76.5417 119.147 76.0651 117.966 75.5866C119.198 72.4955 120.428 69.4043 121.656 66.3131C119.682 69.2303 117.386 71.9165 114.812 74.3208C110.58 72.6141 106.343 70.9075 102.103 69.2008C112.535 69.2404 110.755 59.1135 113.089 48.9527C114.371 43.3693 125.295 39.5887 127.437 34.2766C128.594 31.3954 130.553 28.906 133.081 27.1031C135.609 25.3002 138.6 24.2592 141.701 24.1035C144.802 23.9477 147.883 24.6836 150.579 26.2241C153.275 27.7646 155.473 30.0452 156.913 32.796C159.055 33.6493 159.117 36.9835 157.597 38.7636Z" fill="#141414"/>
<path d="M201.906 158.044C204.306 158.67 206.52 159.866 208.358 161.532C210.197 163.197 211.606 165.282 212.466 167.609C212.93 168.947 213.219 170.534 212.421 171.806C212.177 172.263 211.776 172.615 211.293 172.798C210.809 172.982 210.275 172.984 209.79 172.804C208.748 172.375 208.031 171.31 207.501 170.366C206.799 169.031 206.196 167.647 205.696 166.225C204.877 164.079 203.131 160.496 205.624 158.818C207.721 157.407 210.497 157.955 212.856 157.858C215.405 157.754 218.239 156.777 219.144 154.135C220.025 151.565 217.96 149.148 215.734 148.171C214.396 147.616 212.942 147.398 211.499 147.535C210.057 147.673 208.67 148.162 207.461 148.959C205.07 150.616 203.363 153.086 202.657 155.908C202.606 156.121 202.64 156.347 202.752 156.536C202.864 156.726 203.045 156.864 203.257 156.922C203.469 156.981 203.696 156.955 203.889 156.85C204.082 156.744 204.226 156.568 204.292 156.358C204.992 153.803 206.506 151.398 208.869 150.089C211.081 148.863 214.114 148.787 216.178 150.374C217.199 151.159 218.001 152.466 217.478 153.763C216.998 154.954 215.749 155.662 214.56 155.949C211.87 156.6 209.056 155.758 206.375 156.617C203.819 157.436 202.345 159.528 202.714 162.241C202.993 163.766 203.445 165.254 204.061 166.676C204.584 168.138 205.196 169.567 205.893 170.956C206.957 172.967 208.876 175.145 211.409 174.555C214.296 173.883 214.981 170.512 214.363 168.033C212.952 162.381 207.889 157.854 202.356 156.409C202.143 156.358 201.917 156.392 201.728 156.504C201.539 156.616 201.4 156.797 201.342 157.009C201.283 157.221 201.309 157.447 201.415 157.64C201.52 157.833 201.696 157.978 201.906 158.044Z" fill="#2F2E41"/>
<path d="M227.276 312.444C226.078 311.027 224.368 310.162 222.707 309.334L208.769 302.392L208.372 304.865C207.845 303.238 205.258 303.119 204.21 304.47C203.161 305.821 203.496 307.863 204.519 309.234C205.542 310.604 207.095 311.46 208.599 312.274C211.934 314.079 215.269 315.883 218.604 317.688C220.157 318.529 221.761 319.386 223.517 319.578C225.274 319.77 227.241 319.137 228.116 317.603C229.035 315.99 228.475 313.861 227.276 312.444Z" fill="#2F2E41"/>
<path d="M173.055 325.372C171.35 324.639 169.434 324.629 167.578 324.63C162.387 324.635 157.197 324.639 152.006 324.643L152.756 327.034C151.558 325.813 149.19 326.861 148.855 328.538C148.52 330.215 149.732 331.893 151.259 332.662C152.787 333.432 154.558 333.504 156.267 333.561C160.057 333.686 163.847 333.812 167.637 333.937C169.403 333.996 171.221 334.046 172.878 333.434C174.535 332.822 176.012 331.377 176.11 329.613C176.213 327.76 174.76 326.105 173.055 325.372Z" fill="#2F2E41"/>
<path d="M260.574 216.041C237.736 216.041 212.919 211.49 188.268 202.739C157.784 191.917 129.833 175.583 107.438 155.501L108.101 154.171C130.389 174.155 158.215 190.415 188.573 201.192C216.007 210.931 243.647 215.444 268.494 214.253L268.537 215.852C265.913 215.978 263.259 216.041 260.574 216.041Z" fill="#F0F0F0"/>
<path d="M55.9767 132.697C37.678 108.541 44.9347 80.9718 34.2142 61.7388C-6.8735 -11.9748 43.7203 -5.18341 100.922 9.15146L101.058 10.7417C64.6516 16.3601 40.7085 35.0972 35.368 62.1482C31.2175 83.1713 38.8338 107.821 56.8141 131.556L55.9767 132.697Z" fill="#FFC2B5"/>
<path d="M232.528 218.441C209.69 218.441 183.444 193.098 160.222 205.139C89.9132 241.597 99.5917 180.59 79.3925 157.902L80.0556 156.572C102.343 176.556 130.17 192.815 160.528 203.592C187.961 213.331 215.601 217.844 240.448 216.653L240.491 218.252C237.867 218.379 235.213 218.442 232.528 218.441Z" fill="#FFC2B5"/>
<path d="M284.921 208.377L284.539 206.862C304.964 197.601 303.209 170.019 321.484 163.72C460.691 115.74 323.278 110.329 292.37 84.9493C264.73 62.2535 234.607 35.8666 196.324 22.2767L196.63 20.7295C235.079 34.3792 269.355 56.7523 293.14 83.7275C317.046 110.838 327.521 139.392 322.637 164.13C318.786 183.637 305.744 198.937 284.921 208.377Z" fill="#EC9F8F"/>
<path d="M97.3685 219.11C72.7855 178.917 40.1245 143.015 0 121.613L0.994094 120.728C18.7841 156.661 53.1822 191.081 97.8522 217.647L97.3685 219.11Z" fill="#EC9F8F"/>
<path d="M255.146 265.346C250.517 265.346 245.809 265.207 241.023 264.93L241.074 263.331C276.38 283.418 307.876 278.641 332.227 246.75L332.674 248.235C311.814 259.506 285.226 265.346 255.146 265.346Z" fill="#F0F0F0"/>
<path d="M262.382 250.045C265.018 250.045 267.156 247.179 267.156 243.644C267.156 240.108 265.018 237.242 262.382 237.242C259.745 237.242 257.608 240.108 257.608 243.644C257.608 247.179 259.745 250.045 262.382 250.045Z" fill="#EC9F8F"/>
<path d="M101.112 132.938C101.507 130.331 98.9946 127.788 95.4993 127.257C92.004 126.726 88.8497 128.409 88.4539 131.016C88.0582 133.623 90.5709 136.166 94.0662 136.696C97.5616 137.227 100.716 135.544 101.112 132.938Z" fill="#E6E6E6"/>
<path d="M79.1353 63.4807C81.7718 63.4807 83.9091 60.6147 83.9091 57.0793C83.9091 53.544 81.7718 50.678 79.1353 50.678C76.4989 50.678 74.3616 53.544 74.3616 57.0793C74.3616 60.6147 76.4989 63.4807 79.1353 63.4807Z" fill="#E6E6E6"/>
<path d="M89.983 100.143C83.7573 91.4659 72.0068 86.982 63.7376 90.1277C55.4684 93.2734 53.8118 102.857 60.0375 111.534C66.2632 120.211 84.5894 133.86 92.8587 130.714C101.128 127.568 96.2088 108.819 89.983 100.143ZM90.0213 126.83C89.0034 128.323 86.5061 128.392 84.4434 126.985C82.3807 125.578 81.5337 123.228 82.5516 121.735C83.5695 120.243 86.0668 120.174 88.1295 121.581C90.1922 122.988 91.0392 125.338 90.0213 126.83Z" fill="#3F3D56"/>
<path d="M82.955 108.63C82.1796 109.257 81.4043 109.883 80.629 110.51C79.6774 111.388 78.5508 112.054 77.3232 112.464C75.6378 112.854 73.8759 112.749 72.2486 112.162C69.8763 111.396 67.7972 109.918 66.2932 107.93L67.9691 108.304C67.08 107.274 66.357 106.113 65.8264 104.86C65.4334 103.698 65.6527 102.518 66.7136 102.2C67.928 101.836 69.883 102.655 70.9026 102.066C72.6658 101.048 69.7672 97.2553 71.3739 96.0855C72.3101 95.4038 74.1833 96.0782 75.7447 96.7469C77.6869 97.4869 79.5276 98.4698 81.2229 99.6721C83.9965 101.814 85.5321 105.19 84.3995 107.144C84.0122 107.723 83.5227 108.227 82.955 108.63Z" fill="#141414"/>
<path d="M82.3836 115.136C81.0277 115.322 79.459 114.28 78.1506 113.318L77.8175 112.882C77.5451 112.048 77.4305 111.17 77.4796 110.293C77.5105 109.887 77.6785 109.503 77.956 109.205C78.2335 108.907 78.604 108.712 79.0069 108.652C79.8022 108.547 80.8636 108.89 81.3889 108.43C82.4047 107.541 80.0492 105.088 81.1262 104.256C81.7306 103.788 83.015 104.387 83.5688 105.191C84.021 105.939 84.2297 106.81 84.1662 107.683C84.1842 108.964 84.2021 110.245 84.2201 111.526C84.2773 112.283 84.2008 113.043 83.9939 113.773C83.8802 114.128 83.669 114.445 83.3843 114.686C83.0996 114.927 82.7528 115.083 82.3836 115.136Z" fill="#2F2E41"/>
<path d="M82.7235 119.406C80.8441 118.851 77.9781 116.914 75.5369 115.204L74.8102 114.571C74.0491 113.708 73.4041 112.749 72.8915 111.719C72.6098 110.947 72.9724 110.497 74.2204 110.869C75.325 111.199 77.0648 112.137 77.5793 111.952C78.574 111.595 73.7821 107.773 74.8978 107.508C75.5239 107.359 77.7305 108.683 78.9818 109.815C79.9033 110.632 80.6644 111.614 81.2263 112.71C81.9576 114.039 82.6889 115.369 83.4202 116.698C83.8619 117.362 84.1697 118.106 84.3262 118.888C84.3413 119.454 83.8639 119.743 82.7235 119.406Z" fill="#EC9F8F"/>
<path d="M348.753 15.6752C349.491 6.34108 355.668 17.3551 365.002 18.0925C367.222 18.267 369.386 18.8771 371.37 19.8881C373.354 20.8991 375.12 22.2911 376.566 23.9846C378.012 25.6781 379.111 27.64 379.798 29.758C380.486 31.8761 380.75 34.109 380.575 36.329C380.399 38.549 379.788 40.7128 378.776 42.6966C377.765 44.6804 376.372 46.4455 374.678 47.8909C372.984 49.3364 371.021 50.4339 368.903 51.1208C366.785 51.8077 364.552 52.0705 362.332 51.8942C352.998 51.1568 348.016 25.0092 348.753 15.6752Z" fill="#141414"/>
<path d="M406.864 105.297C407.04 103.078 407.651 100.915 408.662 98.9312C409.673 96.9478 411.065 95.183 412.759 93.7376C414.452 92.2922 416.413 91.1944 418.531 90.5071C420.649 89.8197 422.881 89.5562 425.1 89.7315C434.434 90.4689 440.678 71.9329 439.941 81.2669C439.204 90.601 431.764 124.271 422.43 123.533C420.211 123.358 418.048 122.747 416.064 121.736C414.081 120.724 412.316 119.332 410.87 117.639C409.425 115.946 408.327 113.984 407.64 111.867C406.953 109.749 406.689 107.517 406.864 105.297Z" fill="#141414"/>
<path d="M428.142 125.727C425.59 126.957 422.642 126.232 420.438 124.608C417.932 122.76 416.697 119.821 416.289 116.806C415.896 113.569 416.166 110.287 417.083 107.159C417.954 104.141 419.821 101.009 423.156 100.387C425.379 99.9718 427.751 100.92 428.367 103.228C428.601 104.154 428.593 105.125 428.343 106.046C428.093 106.968 427.61 107.81 426.94 108.49C424.945 110.407 421.743 110.261 419.426 109.043C416.701 107.61 415.197 104.744 414.701 101.796C414.111 98.2921 414.935 94.771 416.107 91.4744C417.382 87.8915 418.969 84.4158 420.427 80.9052C423.27 74.0589 425.941 67.0653 427.073 59.7031C428.803 48.4565 426.109 35.109 416.249 28.2243C410.926 24.5077 404.251 23.4549 397.901 24.2548C391.204 25.0984 385.05 28.037 379.6 31.928C376.765 33.9883 374.073 36.238 371.542 38.6617C370.775 39.4506 369.79 39.9937 368.714 40.2218C367.637 40.4499 366.517 40.3528 365.496 39.9428C360.255 37.8099 361.925 29.2822 367.327 28.6468C369.782 28.3581 372.31 29.7275 373.975 31.4387C375.791 33.3806 376.976 35.8273 377.375 38.4563C378.299 43.9897 376.247 49.8389 372.683 54.0687C368.657 58.8472 362.539 61.5373 356.583 62.9543C349.802 64.5675 342.828 64.6498 335.896 64.8031C328.803 64.96 321.626 65.2296 314.78 67.2646C309.269 68.9195 304.07 71.4742 299.393 74.8255C289.971 81.5185 282.92 91.0335 279.258 101.996C278.398 104.648 277.761 107.367 277.354 110.125C277.194 111.205 278.885 111.333 279.044 110.258C280.827 98.2359 287.336 87.1801 296.486 79.2656C301.05 75.2992 306.276 72.1645 311.924 70.004C318.727 67.4231 325.953 66.7686 333.173 66.5579C340.547 66.3427 347.987 66.4599 355.251 64.9835C361.673 63.6784 368.176 61.1184 372.855 56.3773C376.98 52.1969 379.532 46.2163 379.259 40.3057C379.004 34.806 375.975 28.9254 370.363 27.291C367.731 26.5242 364.904 27.012 362.948 29.0221C361.861 30.1682 361.113 31.5929 360.786 33.1384C360.46 34.6839 360.568 36.2896 361.098 37.7775C361.797 39.394 363.073 40.6927 364.677 41.4206C366.281 42.1485 368.098 42.2536 369.775 41.7155C371.006 41.2632 372.119 40.5361 373.027 39.5895C378.325 34.6281 384.255 30.0751 391.154 27.6045C397.589 25.3001 404.992 24.8274 411.395 27.4851C423.517 32.5164 427.159 47.1182 425.465 59.0123C424.356 66.7963 421.409 74.1666 418.395 81.3771C416.856 85.059 415.145 88.7173 413.966 92.5359C412.911 95.9548 412.382 99.6235 413.247 103.146C414.002 106.22 415.79 109.046 418.649 110.535C421.247 111.888 424.543 112.121 427.087 110.513C430.766 108.187 431.594 101.764 427.462 99.4238C424.72 97.8709 421.209 98.6339 418.935 100.673C416.385 102.96 415.344 106.384 414.818 109.661C413.825 115.853 414.606 123.478 420.722 126.79C423.241 128.155 426.245 128.524 428.879 127.254C429.074 127.152 429.221 126.978 429.29 126.769C429.359 126.56 429.344 126.332 429.248 126.134C429.152 125.936 428.983 125.783 428.777 125.707C428.571 125.631 428.343 125.638 428.142 125.727Z" fill="#EC9F8F"/>
<path d="M277.009 105.81C277.791 95.9114 264.247 69.4454 270.074 62.2812C270.796 61.3859 271.555 60.5199 272.348 59.6832C274.917 56.9439 277.807 54.5247 280.956 52.4779C281.488 52.1232 282.025 51.7857 282.567 51.4601C284.49 50.3122 286.493 49.3016 288.559 48.4358C288.934 48.284 289.315 48.1327 289.695 47.9814C300.114 43.9496 311.626 43.7454 322.182 47.405C332.738 51.0646 341.653 58.3507 347.341 67.9667C353.029 77.5827 355.121 88.9049 353.245 99.9185C351.368 110.932 345.645 120.923 337.093 128.112C336.644 128.496 336.183 128.868 335.712 129.233C331.038 132.883 325.716 135.615 320.026 137.285C320.02 137.285 320.02 137.291 320.014 137.29C311.482 139.781 302.42 139.822 293.866 137.407L293.855 137.406C293.666 137.352 293.478 137.297 293.29 137.237C272.367 131.055 275.222 128.429 277.009 105.81Z" fill="#141414"/>
<path d="M288.537 48.6493C288.536 48.5774 288.543 48.5057 288.559 48.4357C288.934 48.2839 289.314 48.1326 289.695 47.9812C289.854 48.0452 289.991 48.1561 290.086 48.2992C290.181 48.4424 290.23 48.611 290.227 48.7828C290.23 49.6396 290.328 50.4934 290.519 51.3285C292.157 58.5779 299.578 62.8035 306.204 64.6137C314.31 66.8357 323.021 66.8662 330.583 70.8819C333.691 72.4421 336.372 74.7357 338.394 77.5645C340.499 80.6706 341.382 84.445 340.873 88.1625C339.717 96.9088 332.983 103.293 330.21 111.412C329.067 114.757 328.786 118.318 330.086 121.663C331.188 124.505 333.364 127.098 336.492 127.685C336.619 127.704 336.739 127.753 336.844 127.827C336.948 127.901 337.034 127.999 337.093 128.112C336.644 128.496 336.183 128.868 335.712 129.233C335.148 129.103 334.598 128.913 334.073 128.667C331.08 127.24 329.145 124.395 328.176 121.297C327.059 117.711 327.485 113.98 328.735 110.491C331.651 102.354 338.858 95.6618 339.307 86.6782C339.695 78.8917 333.295 73.5109 326.618 70.92C318.356 67.7165 309.095 68.1923 300.956 64.5959C294.553 61.7659 288.566 56.0947 288.537 48.6493Z" fill="#292929"/>
<path d="M280.956 52.478C281.488 52.1233 282.025 51.7859 282.567 51.4602C282.63 51.539 282.675 51.6304 282.699 51.7282C282.724 51.8259 282.727 51.9278 282.709 52.027C281.852 59.2923 283.802 66.6107 288.162 72.4855C290.047 75.0632 292.354 77.3038 294.985 79.1128C297.739 80.9913 300.835 82.1259 303.892 83.3991C306.9 84.6514 309.941 86.1218 312.12 88.6124C314.34 91.1516 315.271 94.4281 315.372 97.7466C315.607 105.611 311.136 112.468 310.214 120.122C309.803 123.536 310.295 126.925 312.201 129.848C313.85 132.37 316.431 134.207 319.53 134.089C320.554 134.045 320.487 135.536 319.586 135.754C319.524 135.769 319.46 135.777 319.397 135.779C315.792 135.914 312.708 133.697 310.801 130.78C308.58 127.391 308.031 123.43 308.594 119.467C309.687 111.798 314.328 104.71 313.629 96.7756C313.533 95.1105 313.088 93.4842 312.323 92.0019C311.558 90.5197 310.491 89.2146 309.19 88.1712C306.509 86.0831 303.234 84.9798 300.128 83.6913C297.023 82.4686 294.132 80.7592 291.565 78.6273C289.059 76.4697 286.914 73.9253 285.211 71.0903C281.807 65.5137 280.313 58.9797 280.956 52.478Z" fill="#292929"/>
<path d="M270.074 62.2811C270.796 61.3859 271.555 60.5199 272.348 59.6831C271.249 64.0004 271.062 68.4994 271.798 72.8932C272.685 78.4215 274.952 83.6367 278.389 88.0563C280.112 90.2571 282.143 92.1988 284.418 93.8216C287.022 95.6713 289.898 97.2874 291.622 100.077C295.362 106.131 291.944 113.378 290.106 119.423C289.142 122.578 288.489 125.968 289.556 129.181C290.385 131.673 292.223 134.091 294.939 134.584C296.007 134.776 295.879 136.472 294.806 136.274C294.605 136.235 294.404 136.191 294.204 136.141C291.255 135.364 289.128 132.951 288.094 130.103C286.755 126.386 287.382 122.536 288.507 118.844C290.359 112.771 294.166 104.835 288.914 99.341C286.699 97.0233 283.7 95.6015 281.28 93.5113C279.111 91.6469 277.206 89.4959 275.617 87.1175C270.752 79.8132 268.776 70.961 270.074 62.2811Z" fill="#292929"/>
<path d="M302.464 183.293V182.204H284.214V156.809H283.128V182.204H262.213V162.592C261.848 162.88 261.486 163.176 261.13 163.48V182.204H247.316C247.162 182.564 247.014 182.927 246.875 183.293H261.13V204.632H243.43C243.447 204.998 243.472 205.358 243.503 205.721H261.13V222.745H247.924C248.086 223.111 248.257 223.471 248.435 223.828H261.13V238.139H262.213V223.828H283.128V238.139H284.214V223.828H302.464V222.745H284.214C284.214 220.509 284.654 218.295 285.509 216.23C286.365 214.164 287.619 212.287 289.2 210.706C290.78 209.125 292.657 207.871 294.723 207.016C296.789 206.16 299.003 205.72 301.238 205.721H302.464V204.632H284.214V183.293H302.464ZM283.128 222.745H262.213V205.721H283.128V222.745ZM283.128 204.632H262.213V204.205C262.213 201.459 262.754 198.739 263.806 196.202C264.857 193.664 266.398 191.359 268.34 189.417C270.282 187.475 272.587 185.935 275.125 184.884C277.662 183.833 280.382 183.292 283.128 183.293V204.632Z" fill="#3F3D56"/>
<path d="M250.838 383.085L95.0067 383.259C94.8283 383.259 94.6571 383.188 94.5309 383.062C94.4048 382.936 94.3339 382.765 94.3339 382.586C94.3339 382.408 94.4048 382.236 94.5309 382.11C94.6571 381.984 94.8283 381.913 95.0067 381.913L250.838 381.74C250.926 381.739 251.014 381.756 251.096 381.79C251.178 381.824 251.252 381.873 251.315 381.936C251.377 381.998 251.427 382.073 251.461 382.154C251.495 382.236 251.513 382.324 251.513 382.412C251.513 382.501 251.495 382.589 251.461 382.67C251.427 382.752 251.377 382.826 251.315 382.889C251.252 382.951 251.178 383.001 251.096 383.035C251.014 383.068 250.926 383.086 250.838 383.085Z" fill="#141414"/>
</g>
<defs>
<clipPath id="clip0_83_49">
<rect width="440" height="383.259" fill="white"/>
</clipPath>
</defs>
</svg>
