<svg width="440" height="380" viewBox="0 0 440 380" fill="none" xmlns="http://www.w3.org/2000/svg">
<g clip-path="url(#clip0_74_346)">
<path d="M279 376C279 376.555 278.718 377 278.367 377H0.632785C0.281824 377 -5.24853e-06 376.555 -5.24853e-06 376C-5.24853e-06 375.445 0.281852 375 0.632785 375H278.367C278.718 375 279 375.445 279 376Z" fill="#3F3C57"/>
<path d="M153.571 45.1117L129.872 32.1193V69.2404H157.28L153.571 45.1117Z" fill="#141414"/>
<path d="M124.792 53.3878L122.604 71.612L138.367 103.025L148.151 73.7879L143.551 52.7824L124.792 53.3878Z" fill="#FFC2B5"/>
<path d="M121.789 72.7H149.005V105.609H121.789V72.7Z" fill="#E188A4"/>
<path d="M99.3372 246.978L92.2311 353.06L109.7 353.653L132.796 247.867L99.3372 246.978Z" fill="#141414"/>
<path d="M141.678 246.386L134.572 352.467L152.041 353.06L175.137 247.275L141.678 246.386Z" fill="#141414"/>
<path d="M80.8807 269.478L81.2969 269.476L192.585 269.113L192.485 268.718L163.873 155.271L171.041 98.0175C172.399 87.1687 166.595 76.9144 156.6 72.5014L152.992 70.9084L146.136 65.9194L137.367 96.9311L123.323 65.8951L117.137 72.0854L103.185 75.7901C94.4888 78.0988 88.855 86.5662 90.0801 95.4859L90.095 95.548L111.401 156.39L80.8807 269.478Z" fill="#E0E0E0"/>
<path d="M150.92 351.855L132.28 352.792L130.583 362.712C130.583 362.712 117.323 379.975 133.252 379.174C149.181 378.373 176.383 381.922 176.075 375.79C175.767 369.659 155.978 366.967 155.978 366.967L150.92 351.855Z" fill="#141414"/>
<path d="M109.611 350.767L90.9711 351.704L89.2737 361.624C89.2737 361.624 76.0143 378.887 91.943 378.086C107.872 377.285 135.074 380.834 134.766 374.703C134.459 368.572 114.669 365.879 114.669 365.879L109.611 350.767Z" fill="#141414"/>
<path d="M92.5416 208.766C92.9753 216.226 97.1732 222.049 101.917 221.772C106.661 221.495 110.154 215.223 109.719 207.761C109.586 204.777 108.741 201.869 107.255 199.28L105.018 167.694L90.2298 169.06L94.005 200.053C92.8289 202.799 92.3271 205.786 92.5416 208.766Z" fill="#FFC2B5"/>
<path d="M168.538 205.929C169.13 213.378 173.451 219.111 178.188 218.733C182.925 218.355 186.284 212.01 185.69 204.558C185.494 201.578 184.587 198.689 183.046 196.131L180.138 164.601L165.382 166.282L169.816 197.187C168.698 199.957 168.26 202.955 168.538 205.929Z" fill="#FFC2B5"/>
<path d="M90.1602 196.348L111.638 194.976L111.612 194.654L107.321 140.907L114.175 90.3656C114.602 87.2175 113.741 84.121 111.749 81.6468C109.758 79.1723 106.919 77.6702 103.754 77.4166C97.6946 76.9386 92.322 81.2703 91.5081 87.2923L82.4011 154.685L82.4104 154.735L90.1602 196.348Z" fill="#E0E0E0"/>
<path d="M164.962 194.289L186.474 192.988L186.427 192.648L171.593 84.9795C170.033 79.0661 164.157 75.4288 158.212 76.6593C155.103 77.3027 152.471 79.1449 150.801 81.847C149.131 84.549 148.659 87.7281 149.473 90.7992L164.962 194.289Z" fill="#E0E0E0"/>
<path d="M137.824 106.425C136.773 106.425 135.921 105.573 135.921 104.521C135.921 103.47 136.773 102.617 137.824 102.617C138.874 102.617 139.726 103.47 139.726 104.521C139.726 105.573 138.874 106.425 137.824 106.425Z" fill="#7A7A7A"/>
<path d="M137.824 120.84C136.773 120.84 135.921 119.988 135.921 118.936C135.921 117.885 136.773 117.032 137.824 117.032C138.874 117.032 139.726 117.885 139.726 118.936C139.726 119.988 138.874 120.84 137.824 120.84Z" fill="#7A7A7A"/>
<path d="M137.824 135.255C136.773 135.255 135.921 134.402 135.921 133.351C135.921 132.3 136.773 131.447 137.824 131.447C138.874 131.447 139.726 132.3 139.726 133.351C139.726 134.402 138.874 135.255 137.824 135.255Z" fill="#7A7A7A"/>
<path d="M137.824 149.67C136.773 149.67 135.921 148.817 135.921 147.766C135.921 146.714 136.773 145.862 137.824 145.862C138.874 145.862 139.726 146.714 139.726 147.766C139.726 148.817 138.874 149.67 137.824 149.67Z" fill="#7A7A7A"/>
<path d="M137.824 164.084C136.773 164.084 135.921 163.232 135.921 162.181C135.921 161.129 136.773 160.277 137.824 160.277C138.874 160.277 139.726 161.129 139.726 162.181C139.726 163.232 138.874 164.084 137.824 164.084Z" fill="#7A7A7A"/>
<path d="M137.824 178.499C136.773 178.499 135.921 177.647 135.921 176.595C135.921 175.544 136.773 174.692 137.824 174.692C138.874 174.692 139.726 175.544 139.726 176.595C139.726 177.647 138.874 178.499 137.824 178.499Z" fill="#7A7A7A"/>
<path d="M137.824 192.914C136.773 192.914 135.921 192.062 135.921 191.01C135.921 189.959 136.773 189.106 137.824 189.106C138.874 189.106 139.726 189.959 139.726 191.01C139.726 192.062 138.874 192.914 137.824 192.914Z" fill="#7A7A7A"/>
<path d="M137.824 207.329C136.773 207.329 135.921 206.476 135.921 205.425C135.921 204.374 136.773 203.521 137.824 203.521C138.874 203.521 139.726 204.374 139.726 205.425C139.726 206.476 138.874 207.329 137.824 207.329Z" fill="#7A7A7A"/>
<path d="M134.936 62.6888C125.108 62.6888 117.142 54.716 117.142 44.8811C117.142 35.0463 125.108 27.0735 134.936 27.0735C144.763 27.0735 152.73 35.0463 152.73 44.8811C152.73 54.716 144.763 62.6888 134.936 62.6888Z" fill="#FFC2B5"/>
<path d="M125.61 24.093C124.758 25.8285 126.11 27.9963 127.9 28.7259C129.689 29.4556 131.711 29.1599 133.619 28.8562C135.528 28.5525 137.552 28.2645 139.337 29.0071C141.645 29.9679 142.947 32.378 144.068 34.6145C146.162 38.7898 148.255 42.965 150.349 47.1403C151.372 49.1802 152.418 51.3119 152.437 53.5942C152.474 57.7835 149.153 61.1314 147.366 64.9201C145.191 69.5331 145.37 75.1863 147.834 79.6518C150.297 84.1174 154.982 87.2813 160.041 87.8968C161.373 88.0587 162.782 88.0411 163.979 87.4358C165.176 86.8306 166.089 85.5088 165.867 84.1852C165.434 81.5963 161.481 80.9914 160.755 78.469C160.376 77.1522 161.047 75.746 161.952 74.7175C162.857 73.6891 164.001 72.8868 164.864 71.823C166.854 69.3699 166.987 65.5831 165.173 62.9967C164.107 61.4767 162.459 60.3474 161.77 58.6231C161.183 57.1535 161.396 55.5014 161.618 53.9344C161.904 51.9208 162.19 49.9071 162.476 47.8935C162.809 45.5442 163.137 43.1106 162.478 40.8312C160.969 35.6076 155.075 33.1543 151.619 28.9585C150.013 27.0087 148.932 24.6638 147.285 22.7492C144.519 19.5361 140.166 17.7636 135.945 18.1321C131.724 18.5005 127.743 21.0005 125.576 24.6441" fill="#141414"/>
<path d="M128.42 24.4224C129.289 24.7335 129.612 25.8666 129.361 26.756C129.111 27.6454 128.456 28.3521 127.856 29.0545C121.073 36.9992 119.496 49.0164 124 58.4443C125.198 60.9521 126.794 63.3122 127.44 66.0155C127.91 67.9825 127.885 70.1401 128.975 71.843C130.086 73.5767 132.285 74.7383 132.503 76.7859C132.643 78.0999 131.842 79.3762 130.77 80.1466C129.697 80.917 128.386 81.2695 127.097 81.5569C123.748 82.3039 120.323 82.7117 116.891 82.7721C115.773 82.7917 114.618 82.7675 113.592 82.3214C112.566 81.8753 111.69 80.9079 111.678 79.7883C111.669 78.9083 112.176 78.0965 112.241 77.2188C112.435 74.5891 108.899 73.19 108.21 70.6448C107.757 68.9715 108.649 67.2496 109.6 65.8003C110.55 64.351 111.635 62.8292 111.612 61.0957C111.589 59.4362 110.549 57.9747 110.144 56.3652C109.585 54.1389 110.272 51.8102 110.954 49.6182C111.533 47.7547 112.113 45.8912 112.692 44.0276C113.308 42.0466 113.924 40.0657 114.54 38.0847C115.616 34.6262 116.745 31.0676 119.072 28.2938C121.4 25.52 125.256 23.7019 128.694 24.8344" fill="#141414"/>
</g>
<defs>
<clipPath id="clip0_74_346">
<rect width="440" height="379.481" fill="white" transform="matrix(-1 0 0 1 440 0)"/>
</clipPath>
</defs>
</svg>
